<svg width="38" height="38" viewBox="0 0 38 38" fill="none" xmlns="http://www.w3.org/2000/svg">
<path d="M5.9375 9.5H31.8273C32.0012 9.5 32.173 9.53821 32.3305 9.61192C32.4881 9.68563 32.6275 9.79304 32.7389 9.92657C32.8504 10.0601 32.9311 10.2165 32.9755 10.3846C33.0199 10.5528 33.0267 10.7287 32.9956 10.8998L30.4062 25.1498C30.3565 25.4235 30.2123 25.671 29.9988 25.8492C29.7853 26.0274 29.516 26.125 29.2378 26.125H9.96291C9.68492 26.125 9.41574 26.0275 9.20226 25.8494C8.98879 25.6713 8.84455 25.424 8.79468 25.1505L5.03565 4.53697C4.98578 4.26348 4.84155 4.01616 4.62807 3.8381C4.41459 3.66003 4.14541 3.5625 3.86742 3.5625H1.1875" fill="#1FAFAB"/>
<path d="M5.9375 9.5H31.8273C32.0012 9.5 32.173 9.53821 32.3305 9.61192C32.4881 9.68563 32.6275 9.79304 32.7389 9.92657C32.8504 10.0601 32.9311 10.2165 32.9755 10.3846C33.0199 10.5528 33.0267 10.7287 32.9956 10.8998L30.4062 25.1498C30.3565 25.4235 30.2123 25.671 29.9988 25.8492C29.7853 26.0274 29.516 26.125 29.2378 26.125H9.96291C9.68492 26.125 9.41574 26.0275 9.20226 25.8494C8.98879 25.6713 8.84455 25.424 8.79468 25.1505L5.03565 4.53697C4.98578 4.26348 4.84155 4.01616 4.62807 3.8381C4.41459 3.66003 4.14541 3.5625 3.86742 3.5625H1.1875" stroke="#1FAFAB" stroke-width="2" stroke-linecap="round" stroke-linejoin="round"/>
<path d="M10.6875 34.4375C11.9992 34.4375 13.0625 33.3742 13.0625 32.0625C13.0625 30.7508 11.9992 29.6875 10.6875 29.6875C9.37582 29.6875 8.3125 30.7508 8.3125 32.0625C8.3125 33.3742 9.37582 34.4375 10.6875 34.4375Z" fill="#1FAFAB"/>
<path d="M28.5 34.4375C29.8117 34.4375 30.875 33.3742 30.875 32.0625C30.875 30.7508 29.8117 29.6875 28.5 29.6875C27.1883 29.6875 26.125 30.7508 26.125 32.0625C26.125 33.3742 27.1883 34.4375 28.5 34.4375Z" fill="#1FAFAB"/>
</svg>
