<svg width="60" height="42" viewBox="0 0 60 42" fill="none" xmlns="http://www.w3.org/2000/svg">
<path d="M0 4.34211C0 1.94403 1.91878 0 4.28571 0H55.7143C58.0812 0 60 1.94403 60 4.34211V36.9079C60 39.306 58.0812 41.25 55.7143 41.25H4.28571C1.91878 41.25 0 39.306 0 36.9079V4.34211Z" fill="white"/>
<path fill-rule="evenodd" clip-rule="evenodd" d="M55.7143 1.08553H4.28571C2.51052 1.08553 1.07143 2.54355 1.07143 4.34211V36.9079C1.07143 38.7065 2.51051 40.1645 4.28571 40.1645H55.7143C57.4895 40.1645 58.9286 38.7064 58.9286 36.9079V4.34211C58.9286 2.54355 57.4895 1.08553 55.7143 1.08553ZM4.28571 0C1.91878 0 0 1.94403 0 4.34211V36.9079C0 39.306 1.91878 41.25 4.28571 41.25H55.7143C58.0812 41.25 60 39.306 60 36.9079V4.34211C60 1.94403 58.0812 0 55.7143 0H4.28571Z" fill="#F3F3F3"/>
<path d="M35.4932 29.8831H24.7852V10.8418H35.4932V29.8831Z" fill="#FF5252"/>
<path d="M25.471 20.3584C25.471 16.4958 27.2987 13.0551 30.1451 10.8378C28.0636 9.21637 25.4367 8.24859 22.5818 8.24859C15.8232 8.24859 10.3445 13.6703 10.3445 20.3584C10.3445 27.0466 15.8232 32.4683 22.5818 32.4683C25.4367 32.4683 28.0636 31.5005 30.1451 29.8791C27.2987 27.6617 25.471 24.221 25.471 20.3584Z" fill="#FF5252"/>
<path d="M49.9351 20.3584C49.9351 27.0466 44.4565 32.4683 37.6978 32.4683C34.8429 32.4683 32.216 31.5005 30.1338 29.8791C32.9809 27.6617 34.8087 24.221 34.8087 20.3584C34.8087 16.4958 32.9809 13.0551 30.1338 10.8378C32.216 9.21637 34.8429 8.24859 37.6978 8.24859C44.4565 8.24859 49.9351 13.6703 49.9351 20.3584Z" fill="#FFA353"/>
</svg>
