<svg width="30" height="29" viewBox="0 0 30 29" fill="none" xmlns="http://www.w3.org/2000/svg">
<path d="M15.014 12.0172C16.4463 12.0122 17.5871 10.9 17.5819 9.51241C17.5767 8.12426 16.4334 7.01974 15.0005 7.01856C13.5556 7.01707 12.4016 8.14206 12.4127 9.54267C12.4234 10.9252 13.5771 12.0223 15.014 12.0172Z" fill="#909090"/>
<path d="M15 0C6.7157 0 0 6.49214 0 14.5C0 22.5079 6.7157 29 15 29C23.2843 29 30 22.5079 30 14.5C30 6.49214 23.2843 0 15 0ZM15.0215 4.40948C17.9432 4.4172 20.2883 6.72741 20.2732 9.58291C20.2585 12.3725 17.8751 14.6335 14.9583 14.624C12.0712 14.6145 9.70343 12.3007 9.72061 9.50547C9.73688 6.67964 12.1059 4.40177 15.0215 4.40948ZM20.9392 16.6307C20.2932 17.2718 19.5155 17.7358 18.6519 18.0595C17.8355 18.3654 16.9409 18.5194 16.0551 18.622C16.1893 18.7626 16.2522 18.8318 16.3357 18.9125C17.5375 20.0805 18.7452 21.2425 19.943 22.4138C20.3512 22.8131 20.4362 23.308 20.2116 23.7717C19.9663 24.279 19.4161 24.6125 18.8762 24.5766C18.5343 24.5537 18.2676 24.3897 18.031 24.1592C17.1238 23.2768 16.1994 22.4103 15.3112 21.5113C15.0519 21.2497 14.9279 21.2995 14.6992 21.5268C13.7868 22.4352 12.8593 23.3291 11.9266 24.2182C11.5077 24.6175 11.0093 24.6899 10.5232 24.4615C10.0066 24.22 9.67826 23.71 9.70343 23.197C9.72123 22.8511 9.89739 22.5859 10.1435 22.3491C11.3334 21.2013 12.5196 20.0499 13.7061 18.8994C13.785 18.8232 13.858 18.7422 13.9725 18.6235C12.3542 18.46 10.8948 18.0749 9.64542 17.1306C9.49013 17.0131 9.33023 16.8998 9.18905 16.7681C8.64184 16.2605 8.58691 15.6787 9.01933 15.08C9.38977 14.5673 10.0109 14.4303 10.657 14.7249C10.7822 14.7815 10.9013 14.8533 11.0154 14.9293C13.3436 16.4759 16.5422 16.5183 18.8796 14.9984C19.111 14.8275 19.3587 14.6869 19.6456 14.616C20.203 14.4772 20.7235 14.6756 21.0224 15.1473C21.3646 15.6864 21.3606 16.2121 20.9392 16.6307Z" fill="#909090"/>
</svg>
