<svg width="29" height="29" viewBox="0 0 29 29" fill="none" xmlns="http://www.w3.org/2000/svg">
<path fill-rule="evenodd" clip-rule="evenodd" d="M14.5 29C22.5081 29 29 22.5081 29 14.5C29 6.49187 22.5081 0 14.5 0C6.49187 0 0 6.49187 0 14.5C0 22.5081 6.49187 29 14.5 29ZM18.8753 20.0426L21.9714 8.10951C22.1597 7.3886 21.3828 6.78105 20.6604 7.07631L5.57409 13.2244C4.83354 13.5252 4.80318 14.496 5.51948 14.8423L8.57916 16.3183L17.6855 10.3915C17.7825 10.3292 17.8797 10.4029 17.8858 10.4881L10.2545 17.3005C10.0663 17.4708 9.95705 17.7036 9.95705 17.9477V21.1041C9.95705 22.0069 11.2319 22.3418 11.7357 21.5697L13.5874 18.7369L17.5032 20.6273C18.0557 20.8942 18.7296 20.6046 18.8753 20.0426Z" fill="#909090"/>
</svg>
