<svg width="60" height="42" viewBox="0 0 60 42" fill="none" xmlns="http://www.w3.org/2000/svg">
<path d="M0 4.34211C0 1.94403 1.91878 0 4.28571 0H55.7143C58.0812 0 60 1.94403 60 4.34211V36.9079C60 39.306 58.0812 41.25 55.7143 41.25H4.28571C1.91878 41.25 0 39.306 0 36.9079V4.34211Z" fill="white"/>
<path fill-rule="evenodd" clip-rule="evenodd" d="M55.7143 1.08553H4.28571C2.51052 1.08553 1.07143 2.54355 1.07143 4.34211V36.9079C1.07143 38.7065 2.51051 40.1645 4.28571 40.1645H55.7143C57.4895 40.1645 58.9286 38.7064 58.9286 36.9079V4.34211C58.9286 2.54355 57.4895 1.08553 55.7143 1.08553ZM4.28571 0C1.91878 0 0 1.94403 0 4.34211V36.9079C0 39.306 1.91878 41.25 4.28571 41.25H55.7143C58.0812 41.25 60 39.306 60 36.9079V4.34211C60 1.94403 58.0812 0 55.7143 0H4.28571Z" fill="#F3F3F3"/>
<path d="M26.6397 28.2917H22.645L25.1436 13.8535H29.138L26.6397 28.2917Z" fill="#213140"/>
<path d="M41.1205 14.2065C40.3326 13.9144 39.0829 13.5918 37.5377 13.5918C33.5928 13.5918 30.8149 15.5578 30.7979 18.3685C30.7651 20.4422 32.7868 21.594 34.2988 22.2855C35.8443 22.992 36.3696 23.4532 36.3696 24.083C36.3539 25.0503 35.1208 25.4961 33.9707 25.4961C32.3759 25.4961 31.5213 25.2663 30.2227 24.7281L29.6967 24.4974L29.1377 27.7385C30.0746 28.1374 31.8007 28.4914 33.5928 28.5069C37.7843 28.5069 40.513 26.5714 40.5454 23.5761C40.5613 21.9325 39.4938 20.6731 37.1923 19.644C35.7951 18.9834 34.9395 18.5379 34.9395 17.862C34.9559 17.2475 35.6632 16.6181 37.2404 16.6181C38.539 16.5873 39.4931 16.879 40.216 17.1709L40.5773 17.3243L41.1205 14.2065Z" fill="#213140"/>
<path fill-rule="evenodd" clip-rule="evenodd" d="M48.2707 13.8535H51.3605L54.5832 28.2915H50.8845C50.8845 28.2915 50.5226 26.6326 50.4079 26.1257H45.2791C45.1308 26.5095 44.4407 28.2915 44.4407 28.2915H40.2493L46.1828 15.0515C46.5939 14.1144 47.3178 13.8535 48.2707 13.8535ZM48.0245 19.1371C48.0245 19.1371 46.7586 22.3474 46.4296 23.1768H49.7499C49.5857 22.4549 48.8292 18.9989 48.8292 18.9989L48.55 17.7548C48.4325 18.0752 48.2624 18.5156 48.1478 18.8127C48.07 19.0141 48.0177 19.1496 48.0245 19.1371Z" fill="#213140"/>
<path fill-rule="evenodd" clip-rule="evenodd" d="M5.33699 13.8535H11.764C12.6351 13.8839 13.342 14.145 13.572 15.0672L14.9688 21.7012C14.9689 21.7015 14.969 21.7019 14.9691 21.7022L15.3966 23.699L19.3087 13.8535H23.5327L17.2538 28.2764H13.0296L9.46918 15.7309C8.24074 15.0597 6.83875 14.5199 5.27124 14.1452L5.33699 13.8535Z" fill="#213140"/>
</svg>
