<svg width="30" height="29" viewBox="0 0 30 29" fill="none" xmlns="http://www.w3.org/2000/svg">
<path d="M12.2666 17.6778C14.5174 16.5495 16.7486 15.4316 19.0004 14.3028C16.7419 13.1635 14.5113 12.0391 12.2666 10.9067C12.2666 13.1716 12.2666 15.4132 12.2666 17.6778Z" fill="#909090"/>
<path d="M15 0C6.71601 0 0 6.49185 0 14.5C0 22.5082 6.71601 29 15 29C23.284 29 30 22.5082 30 14.5C30 6.49185 23.284 0 15 0ZM25.2203 19.34C24.9606 20.4288 24.0393 21.2319 22.9304 21.3514C20.3042 21.6353 17.6464 21.6368 14.9994 21.6353C12.3523 21.6368 9.69391 21.6353 7.06711 21.3514C5.95826 21.2319 5.03754 20.4288 4.77852 19.34C4.40931 17.7889 4.40931 16.0964 4.40931 14.5C4.40931 12.9036 4.41361 11.2105 4.78281 9.66004C5.04184 8.57124 5.96256 7.76785 7.07141 7.64799C9.69821 7.36437 12.3566 7.36289 15.0037 7.36437C17.6501 7.36289 20.3085 7.36437 22.9344 7.64799C24.0439 7.76785 24.9652 8.57095 25.2242 9.66004C25.5935 11.2108 25.5904 12.9036 25.5904 14.5C25.5904 16.0964 25.5895 17.7892 25.2203 19.34Z" fill="#909090"/>
</svg>
