<svg width="500" height="173" viewBox="0 0 500 173" fill="none" xmlns="http://www.w3.org/2000/svg">
<g clip-path="url(#clip0_747_4850)">
<path d="M25.5 93.7025C25.5 95.6495 25.4251 98.7201 25.2753 102.913C25.2753 107.107 25.2004 111.826 25.0506 117.067C24.9008 122.31 24.6762 127.777 24.3766 133.469C24.2268 139.011 23.9273 144.103 23.4779 148.746C23.0286 153.239 22.5044 156.984 21.9053 159.98C21.4559 162.975 20.8568 164.473 20.1079 164.473C17.8612 164.473 15.6894 162.9 13.5925 159.755C11.6453 156.46 9.62331 152.94 7.52645 149.196C7.07706 148.297 6.55283 145.676 5.95375 141.332C5.50436 136.839 4.98013 131.222 4.38105 124.482C3.93171 117.742 3.48237 110.253 3.03303 102.015C2.58369 93.7768 2.13436 85.3896 1.68502 76.852C1.23568 68.3145 0.861227 59.9268 0.561667 51.689C0.411889 43.4511 0.262111 36.0369 0.112333 29.4466C-0.0374443 22.8563 -0.0374443 17.3893 0.112333 13.0458C0.262111 8.55238 0.561666 5.93127 1.011 5.18237C1.61012 4.13392 3.70704 3.38502 7.30176 2.93568C10.8965 2.33656 15.2401 2.037 20.3326 2.037C25.5748 2.037 31.1916 2.18678 37.1828 2.48634C43.1739 2.7859 48.7158 3.23524 53.8083 3.83436C59.0506 4.2837 63.3942 4.80792 66.8391 5.40704C70.4338 6.00616 72.4558 6.53039 72.9052 6.97972C73.5041 7.57887 73.5792 9.22646 73.1298 11.9225C72.8303 14.4687 72.2312 17.3145 71.3325 20.4598C70.5836 23.4554 69.61 26.3012 68.4118 28.9973C67.3633 31.6933 66.4646 33.4159 65.7158 34.1647C64.9669 34.9137 61.4471 34.8387 55.1563 33.9401C49.0153 33.0414 39.1299 31.9929 25.5 30.7946V68.3144C35.9845 69.2131 44.1475 70.0369 49.9889 70.7857C55.9801 71.5347 59.1255 72.059 59.425 72.3585C60.0242 72.9577 60.2489 74.1559 60.099 75.9532C59.9492 77.7508 59.5748 79.6979 58.9757 81.7945C58.3766 83.7416 57.6277 85.6143 56.729 87.4118C55.8303 89.0591 54.9317 90.1825 54.033 90.7814C53.5837 91.0813 50.8876 91.5307 45.9449 92.1296C41.1519 92.7285 34.337 93.2531 25.5 93.7025ZM95.8213 67.191C96.1204 67.94 96.2707 70.3364 96.2707 74.3804C96.4202 78.2753 96.4202 83.0683 96.2707 88.7592C96.2707 94.3014 96.1204 100.293 95.8213 106.733C95.5215 113.024 95.1472 119.015 94.6979 124.706C94.398 130.248 94.0238 135.041 93.5744 139.085C93.125 142.98 92.6756 145.301 92.2262 146.05C90.8788 148.147 88.8566 149.495 86.1603 150.094C83.4647 150.544 81.5176 150.618 80.319 150.319C79.7201 150.319 79.046 148.597 78.2968 145.152C77.6979 141.706 77.0989 137.363 76.5002 132.12C75.9005 126.878 75.3768 121.187 74.9274 115.046C74.478 108.905 74.1038 103.064 73.8039 97.5215C73.5041 91.8298 73.3545 86.8873 73.3545 82.6933C73.3545 78.5 73.5041 75.8034 73.8039 74.6051C74.2533 72.658 75.5263 70.9356 77.6227 69.4378C79.8696 67.94 82.191 66.8167 84.5874 66.0678C87.1342 65.3189 89.4555 65.0193 91.5522 65.1691C93.7991 65.1691 95.2224 65.843 95.8213 67.191ZM96.9448 30.7946C97.5437 31.9929 97.7684 33.6405 97.6189 35.7374C97.6189 37.8344 97.3942 40.0061 96.9448 42.2528C96.4954 44.4995 95.8965 46.6712 95.1472 48.7682C94.398 50.8652 93.6495 52.5127 92.9003 53.7109C91.4026 55.8078 89.1557 57.1559 86.1603 57.7551C83.3144 58.2044 81.2178 58.2792 79.8696 57.9797C78.8213 57.8299 77.773 57.1558 76.7247 55.9577C75.6758 54.6097 74.7771 53.037 74.0286 51.2396C73.2794 49.2925 72.7554 47.1956 72.4558 44.9488C72.1563 42.7021 72.2312 40.6052 72.6805 38.6581C73.1298 36.7109 74.5531 34.9884 76.9486 33.4906C79.3459 31.8431 81.8919 30.6449 84.5874 29.8959C87.2838 28.9973 89.8298 28.6229 92.2262 28.7727C94.6227 28.7727 96.1956 29.4467 96.9448 30.7946ZM178.499 53.2616C178.65 54.9091 178.35 57.4554 177.6 60.9003C177.002 64.3452 176.028 67.7902 174.68 71.2351C173.482 74.6801 171.834 77.6756 169.738 80.2224C167.791 82.7684 165.544 84.0414 162.998 84.0414C161.2 84.0414 159.702 82.6189 158.504 79.773C157.456 76.9272 156.632 73.6317 156.033 69.8872C155.584 65.9929 155.209 62.1735 154.91 58.4291C154.61 54.6845 154.31 52.0634 154.011 50.5656C153.561 49.8167 152.663 49.1427 151.314 48.5436C150.117 47.7947 148.918 47.4202 147.72 47.4202C146.521 47.4202 145.173 48.3937 143.676 50.3409C142.178 52.288 140.68 54.5347 139.183 57.0809C137.834 59.6272 136.637 62.1735 135.587 64.7197C134.689 67.266 134.314 69.1382 134.464 70.3365C134.464 71.2352 135.438 72.8078 137.385 75.0545C139.332 77.3014 141.729 79.9977 144.574 83.1426C147.57 86.138 150.715 89.4333 154.011 93.0284C157.456 96.4732 160.601 99.9931 163.446 103.587C166.292 107.033 168.689 110.327 170.636 113.473C172.733 116.619 173.857 119.314 174.006 121.561C174.156 124.258 173.407 127.702 171.759 131.896C170.262 136.09 168.314 140.134 165.918 144.028C163.521 147.923 160.975 151.292 158.279 154.138C155.584 156.984 153.187 158.482 151.09 158.632C148.993 158.781 145.923 157.658 141.878 155.262C137.984 152.715 134.015 149.794 129.971 146.499C126.077 143.054 122.557 139.685 119.412 136.39C116.416 133.094 114.693 130.698 114.244 129.2C113.794 127.852 113.495 126.054 113.345 123.808C113.345 121.561 113.42 119.314 113.57 117.067C113.87 114.821 114.319 112.949 114.918 111.451C115.517 109.804 116.266 108.98 117.165 108.98C118.064 108.98 119.861 110.552 122.557 113.698C125.253 116.693 128.173 120.138 131.319 124.033C134.464 127.777 137.535 131.222 140.531 134.367C143.526 137.363 145.698 138.86 147.046 138.86C147.794 138.86 148.619 138.337 149.517 137.288C150.416 136.09 151.24 134.742 151.988 133.244C152.738 131.746 153.337 130.248 153.786 128.751C154.385 127.103 154.685 125.83 154.685 124.931C154.535 123.584 153.337 121.636 151.09 119.09C148.843 116.544 145.998 113.698 142.552 110.552C139.107 107.407 135.363 104.112 131.319 100.667C127.275 97.0721 123.531 93.7025 120.085 90.5567C116.64 87.4118 113.794 84.5659 111.548 82.0192C109.301 79.4732 108.104 77.5261 107.953 76.1779C107.804 74.8299 108.253 72.733 109.301 69.8872C110.35 66.8916 111.698 63.6712 113.345 60.2263C114.993 56.6316 116.865 52.962 118.962 49.2175C121.209 45.473 123.456 42.0281 125.702 38.8828C127.949 35.7374 130.12 33.1911 132.218 31.2439C134.464 29.1471 136.412 28.0987 138.059 28.0987C141.354 28.0987 145.248 28.9974 149.742 30.7946C154.385 32.5919 158.804 34.8387 162.998 37.5348C167.191 40.0811 170.786 42.777 173.781 45.6228C176.777 48.4686 178.35 51.0149 178.499 53.2616ZM235.565 40.9048C236.614 41.8035 237.587 43.526 238.486 46.0722C239.535 48.6185 240.433 51.689 241.183 55.2837C241.931 58.8784 242.605 62.7726 243.204 66.9664C243.804 71.1602 244.327 75.2792 244.777 79.3236C245.226 83.3673 245.526 87.1871 245.676 90.7814C245.975 94.2262 246.2 97.0721 246.35 99.319C246.499 102.015 246.574 104.861 246.574 107.857C246.724 110.702 246.724 113.473 246.574 116.169C246.574 118.715 246.425 121.037 246.125 123.134C245.975 125.231 245.676 126.804 245.226 127.852C244.327 130.099 242.755 131.671 240.508 132.57C238.411 133.319 236.015 133.844 233.319 134.143C231.971 134.292 229.65 134.367 226.354 134.367C223.209 134.218 219.764 134.067 216.019 133.918C212.425 133.619 208.979 133.319 205.685 133.019C202.39 132.72 199.918 132.42 198.271 132.12C194.975 131.372 192.579 130.398 191.081 129.2C189.733 128.002 188.385 126.279 187.037 124.033C186.587 123.134 186.213 120.887 185.913 117.292C185.614 113.548 185.39 109.13 185.239 104.037C185.239 98.7945 185.314 93.1779 185.464 87.1871C185.614 81.1956 185.839 75.5039 186.138 70.1118C186.587 64.7198 187.037 60.0016 187.486 55.9577C188.085 51.9137 188.834 49.2175 189.733 47.8695C191.231 45.7725 193.777 43.8255 197.372 42.0281C201.117 40.2308 204.486 38.8079 207.482 37.7594C208.979 37.3101 210.927 37.0105 213.324 36.8607C215.87 36.5611 218.491 36.5611 221.186 36.8607C224.032 37.0105 226.729 37.4598 229.275 38.2087C231.821 38.8078 233.918 39.7066 235.565 40.9048ZM222.984 110.552C223.284 109.953 223.583 108.156 223.883 105.16C224.332 102.015 224.632 98.2707 224.781 93.9271C225.081 89.5836 225.231 84.9402 225.231 79.9977C225.38 75.0544 225.456 70.4863 225.456 66.2925C225.456 62.0986 225.306 58.5788 225.006 55.733C224.706 52.7374 224.332 51.015 223.883 50.5656C223.134 49.9665 222.011 49.7417 220.513 49.8915C219.165 49.8915 217.742 50.1163 216.244 50.5656C214.746 50.8652 213.398 51.3145 212.2 51.9136C211.002 52.363 210.178 52.8122 209.729 53.2616C207.781 54.9091 206.733 57.6051 206.583 61.3496C206.583 62.3981 206.433 65.3937 206.134 70.3365C205.984 75.1294 205.91 80.3719 205.91 86.0636C205.91 91.6051 205.984 96.773 206.134 101.566C206.433 106.359 206.958 109.279 207.706 110.327C208.456 111.377 209.504 112.2 210.852 112.799C212.35 113.248 213.847 113.473 215.345 113.473C216.993 113.473 218.491 113.248 219.839 112.799C221.337 112.2 222.385 111.451 222.984 110.552ZM260.729 170.764C260.429 170.015 260.279 167.319 260.279 162.676C260.279 158.032 260.279 152.191 260.279 145.152C260.429 138.112 260.579 130.248 260.729 121.561C261.028 112.724 261.253 103.812 261.403 94.8259C261.702 85.6894 262.002 76.852 262.301 68.3144C262.6 59.6272 262.825 51.9136 262.975 45.1735C263.275 38.4334 263.499 32.9665 263.65 28.7727C263.799 24.4291 263.949 22.1074 264.098 21.8079C264.248 21.2087 264.923 19.711 266.12 17.3145C267.319 14.918 268.666 12.4466 270.165 9.90038C271.812 7.20439 273.459 4.88281 275.107 2.93568C276.755 0.838765 278.178 -0.134801 279.376 0.0149779C279.825 0.164758 280.2 3.16035 280.499 9.00169C280.949 14.6933 281.323 22.0325 281.623 31.0193C282.072 40.0061 282.372 49.9664 282.521 60.9003C282.821 71.6844 283.045 82.2439 283.196 92.579C283.495 102.764 283.719 112.051 283.87 120.438C284.019 128.676 284.169 134.742 284.319 138.637C289.112 139.085 293.905 139.46 298.698 139.759C303.64 140.059 308.059 140.433 311.953 140.883C315.847 141.183 318.993 141.482 321.389 141.781C323.936 142.081 325.284 142.306 325.433 142.456C325.883 143.054 326.482 144.478 327.231 146.724C328.13 148.821 328.953 151.143 329.702 153.689C330.451 156.085 330.975 158.332 331.275 160.429C331.724 162.526 331.649 163.799 331.05 164.248C313.825 167.394 300.495 169.491 291.059 170.539C281.623 171.587 274.658 172.112 270.165 172.112C264.923 172.112 261.777 171.663 260.729 170.764ZM354.191 67.191C354.491 67.94 354.64 70.3364 354.64 74.3804C354.79 78.2753 354.79 83.0683 354.64 88.7592C354.64 94.3014 354.491 100.293 354.191 106.733C353.891 113.024 353.517 119.015 353.068 124.706C352.768 130.248 352.393 135.041 351.944 139.085C351.495 142.98 351.045 145.301 350.596 146.05C349.249 148.147 347.226 149.495 344.53 150.094C341.834 150.544 339.887 150.618 338.689 150.319C338.09 150.319 337.416 148.597 336.666 145.152C336.068 141.706 335.469 137.363 334.87 132.12C334.27 126.878 333.746 121.187 333.297 115.046C332.847 108.905 332.473 103.064 332.173 97.5215C331.874 91.8298 331.724 86.8873 331.724 82.6933C331.724 78.5 331.874 75.8034 332.173 74.6051C332.623 72.658 333.896 70.9356 335.992 69.4378C338.239 67.94 340.561 66.8167 342.958 66.0678C345.504 65.3189 347.825 65.0193 349.923 65.1691C352.169 65.1691 353.592 65.843 354.191 67.191ZM355.314 30.7946C355.913 31.9929 356.138 33.6405 355.989 35.7374C355.989 37.8344 355.764 40.0061 355.314 42.2528C354.865 44.4995 354.266 46.6712 353.517 48.7682C352.768 50.8652 352.019 52.5127 351.27 53.7109C349.772 55.8078 347.526 57.1559 344.53 57.7551C341.684 58.2044 339.587 58.2792 338.239 57.9797C337.191 57.8299 336.143 57.1558 335.094 55.9577C334.045 54.6097 333.147 53.037 332.398 51.2396C331.649 49.2925 331.125 47.1956 330.825 44.9488C330.526 42.7021 330.6 40.6052 331.05 38.6581C331.499 36.7109 332.923 34.9884 335.319 33.4906C337.716 31.8431 340.262 30.6449 342.958 29.8959C345.653 28.9973 348.199 28.6229 350.596 28.7727C352.992 28.7727 354.565 29.4467 355.314 30.7946ZM435.521 69.6625C435.521 72.059 435.222 75.5038 434.623 79.9977C434.173 84.4908 433.499 89.4333 432.6 94.8259C431.702 100.068 430.729 105.535 429.679 111.226C428.781 116.768 427.808 121.86 426.759 126.504C425.86 131.147 425.037 135.041 424.288 138.187C423.689 141.332 423.314 143.054 423.164 143.354C422.865 143.804 422.041 144.103 420.693 144.253C419.495 144.253 418.072 144.103 416.424 143.804C414.926 143.504 413.504 143.054 412.156 142.456C410.957 141.857 410.209 141.107 409.909 140.209C409.759 139.61 409.684 137.513 409.684 133.918C409.834 130.324 409.984 126.054 410.133 121.112C410.433 116.019 410.732 110.627 411.032 104.936C411.332 99.0943 411.631 93.7025 411.931 88.7592C412.38 83.6672 412.68 79.3236 412.83 75.7284C413.129 72.1338 413.279 69.962 413.279 69.2132C413.279 66.5171 412.979 63.9709 412.38 61.5744C411.931 59.0281 411.332 56.8564 410.583 55.059C409.834 53.2617 408.936 51.9137 407.887 51.015C406.988 49.9665 406.164 49.5919 405.416 49.8915C403.469 50.1911 401.821 50.7154 400.473 51.4643C399.125 52.0634 398.002 52.7374 397.103 53.4862C396.055 54.3849 395.231 55.4334 394.631 56.6316C394.482 56.9311 394.182 57.8299 393.732 59.3277C393.433 60.8255 393.283 62.5479 393.283 64.495C393.283 65.0942 393.283 67.266 393.283 71.0104C393.283 74.6051 393.209 78.9486 393.059 84.0414C393.059 89.1342 392.984 94.6756 392.834 100.667C392.834 106.508 392.759 111.975 392.61 117.067C392.61 122.011 392.535 126.279 392.385 129.874C392.235 133.469 392.085 135.491 391.936 135.94C391.636 136.839 390.887 138.112 389.689 139.759C388.49 141.257 387.143 142.68 385.645 144.028C384.146 145.377 382.724 146.425 381.376 147.173C380.028 147.773 379.129 147.623 378.68 146.724C378.231 146.275 377.781 144.103 377.332 140.209C376.883 136.165 376.358 131.297 375.759 125.605C375.31 119.764 374.785 113.473 374.186 106.733C373.587 99.8436 373.063 93.2531 372.614 86.9624C372.164 80.6718 371.79 74.9797 371.491 69.8872C371.191 64.7946 370.966 61.1251 370.817 58.8784C370.666 55.733 370.517 52.2132 370.367 48.3189C370.217 44.2748 370.068 40.5303 369.918 37.0854C369.918 33.4906 369.918 30.4202 369.918 27.8739C370.068 25.1779 370.367 23.5303 370.817 22.9312C371.116 22.3321 372.09 22.1824 373.737 22.482C375.535 22.7815 377.406 23.3805 379.354 24.2792C381.451 25.0281 383.398 26.0017 385.196 27.2C386.992 28.2485 388.191 29.2969 388.79 30.3454C389.09 31.244 389.464 32.2924 389.913 33.4906C390.363 34.5391 390.737 36.3366 391.037 38.8828C393.583 37.385 396.354 36.0369 399.35 34.8386C402.345 33.4906 405.266 32.5172 408.111 31.918C411.107 31.1692 413.953 30.9444 416.649 31.2439C419.345 31.3937 421.742 32.1426 423.838 33.4906C425.186 34.5391 426.535 36.3366 427.883 38.8828C429.38 41.4291 430.653 44.4245 431.702 47.8695C432.9 51.3144 433.799 54.9841 434.398 58.8784C435.147 62.6229 435.521 66.2176 435.521 69.6625ZM471.918 67.191C472.217 67.94 472.367 70.3364 472.367 74.3804C472.517 78.2753 472.517 83.0683 472.367 88.7592C472.367 94.3014 472.217 100.293 471.918 106.733C471.618 113.024 471.244 119.015 470.795 124.706C470.495 130.248 470.12 135.041 469.671 139.085C469.222 142.98 468.772 145.301 468.323 146.05C466.975 148.147 464.953 149.495 462.257 150.094C459.561 150.544 457.614 150.618 456.416 150.319C455.816 150.319 455.143 148.597 454.393 145.152C453.794 141.706 453.196 137.363 452.596 132.12C451.997 126.878 451.472 121.187 451.023 115.046C450.574 108.905 450.199 103.064 449.9 97.5215C449.6 91.8298 449.451 86.8873 449.451 82.6933C449.451 78.5 449.6 75.8034 449.9 74.6051C450.35 72.658 451.623 70.9356 453.719 69.4378C455.966 67.94 458.288 66.8167 460.684 66.0678C463.23 65.3189 465.552 65.0193 467.649 65.1691C469.896 65.1691 471.318 65.843 471.918 67.191Z" fill="url(#paint0_linear_747_4850)"/>
<mask id="path-2-inside-1_747_4850" fill="white">
<path d="M434.212 0.0431665C434.098 0.0144994 433.982 0 433.865 0H432.785C432.391 0 432.105 0.376433 432.212 0.756249V0.756249C432.237 0.847568 432.284 0.931461 432.349 1.00095L433.647 2.39916L435.402 1.59347L437.156 0.787783L434.212 0.0431665Z"/>
<path d="M441.811 2.75724L437.156 0.787783L436.977 7.55556L439.394 5.1564L441.811 2.75724Z"/>
<path d="M435.67 5.38847C435.705 5.86531 435.894 6.31784 436.209 6.67766L436.977 7.55556L437.156 0.787783L435.402 1.59347L433.647 2.39916L435.133 4.10113C435.447 4.46067 435.635 4.91247 435.67 5.38847V5.38847Z"/>
<path d="M449.474 6.37388L441.811 2.75724L439.394 5.1564L441.914 5.46077L444.434 5.76514L449.474 6.37388Z"/>
<path d="M439.394 5.1564L436.977 7.55556L444.434 5.76514L441.914 5.46077L439.394 5.1564Z"/>
<path d="M438.837 9.86331C438.816 10.0525 438.899 10.238 439.054 10.3486V10.3486L449.474 6.37388L444.434 5.76514L436.977 7.55556L438.376 8.47132C438.726 8.70044 438.919 9.10647 438.874 9.5224L438.837 9.86331Z"/>
<path d="M443.408 15.4016C443.937 15.9183 444.569 16.3172 445.264 16.5721L445.965 16.8299L447.72 11.6019L449.474 6.37388L439.054 10.3486L440.733 11.7144C441.395 12.2522 441.92 12.9481 442.259 13.7302V13.7302C442.529 14.3547 442.921 14.926 443.408 15.4016V15.4016Z"/>
<path d="M457.818 10.9573L449.474 6.37388L447.72 11.6019L457.818 10.9573Z"/>
<path d="M448.873 19.9175C449.458 20.2188 449.969 20.6452 450.37 21.1666L450.835 21.7715L447.72 11.6019L445.965 16.8299L446.311 17.4641C446.51 17.8279 446.748 18.1683 447.023 18.4787V18.4787C447.296 18.787 447.602 19.0638 447.936 19.3041L448.311 19.5733C448.49 19.7017 448.677 19.8168 448.873 19.9175V19.9175Z"/>
<path d="M447.72 11.6019L450.835 21.7715L454.326 16.3644L447.72 11.6019Z"/>
<path d="M457.818 10.9573L447.72 11.6019L454.326 16.3644L457.818 10.9573Z"/>
<path d="M457.818 10.9573L454.326 16.3644L463.619 13.7146L457.818 10.9573Z"/>
<path d="M454.326 16.3644L450.835 21.7715L455.956 18.1996L458.516 16.4136L463.619 13.7146L454.326 16.3644Z"/>
<path d="M454.588 25.0878C454.83 25.2631 455.098 25.3995 455.382 25.4921L456.6 25.8894L456.278 22.0445L455.956 18.1996L450.835 21.7715L451.641 22.5014C451.864 22.7041 452.133 22.85 452.425 22.9268V22.9268C453.002 23.0785 453.472 23.4944 453.694 24.0478L453.706 24.0775C453.842 24.419 454.073 24.7148 454.371 24.9306L454.588 25.0878Z"/>
<path d="M458.516 16.4136L455.956 18.1996L456.278 22.0445L458.516 16.4136Z"/>
<path d="M460.441 23.9804L458.516 16.4136L456.278 22.0445L460.441 23.9804Z"/>
<path d="M463.619 13.7146L458.516 16.4136L460.441 23.9804L460.759 19.304L463.619 13.7146Z"/>
<path d="M472.249 18.0116L467.934 15.8631L463.619 13.7146L460.759 19.304L472.249 18.0116Z"/>
<path d="M463.619 9.16693L460.45 6.71406L467.934 15.8631L472.249 18.0116L467.826 12.891L463.619 9.16693Z"/>
<path d="M460.45 6.71406L457.818 10.9573L463.619 13.7146L467.934 15.8631L460.45 6.71406Z"/>
<path d="M453.266 5.25745C454.745 6.71397 456.069 8.32005 457.216 10.0499L457.818 10.9573L460.45 6.71406L453.127 5.12059L453.266 5.25745Z"/>
<path d="M457.281 4.26119L454.237 2.07688L453.915 1.88705L453.127 5.12059L460.45 6.71406L457.281 4.26119Z"/>
<path d="M451.336 2.39916L453.127 5.12059L453.915 1.88705L451.808 0.646138C451.687 0.574765 451.549 0.537125 451.408 0.537125H451.177C450.87 0.537125 450.62 0.786301 450.62 1.09367V1.09367C450.62 1.19798 450.65 1.30019 450.705 1.38865L451.336 2.39916Z"/>
<path d="M474.998 9.68483C474.504 10.0782 474.058 10.5295 473.672 11.0291L472.786 12.1748L476.599 10.1517L480.413 8.12849H479.227C478.472 8.12849 477.722 8.26006 477.011 8.51731V8.51731C476.347 8.75781 475.727 9.10483 475.174 9.54475L474.998 9.68483Z"/>
<path d="M484.996 8.88046L476.599 10.1517L483.6 16.1496L484.996 8.88046Z"/>
<path d="M484.996 8.88046L480.413 8.12849L476.599 10.1517L484.996 8.88046Z"/>
<path d="M472.786 12.1748C472.288 13.8565 472.092 15.6129 472.206 17.3629L472.249 18.0116L476.599 10.1517L472.786 12.1748V12.1748Z"/>
<path d="M476.599 10.1517L472.249 18.0116L483.6 16.1496L476.599 10.1517Z"/>
<path d="M484.781 12.7187C484.781 11.9659 485.199 11.2751 485.865 10.9249L487.575 10.0263L484.996 8.88046L483.6 16.1496L484.244 14.7172L484.686 13.3348C484.749 13.1356 484.781 12.9278 484.781 12.7187V12.7187Z"/>
<path d="M488.147 8.30753L484.996 8.88046L487.575 10.0263L490.497 7.55556L488.147 8.30753Z"/>
<path d="M495.631 6.66035L491.181 7.39103C490.949 7.42904 490.721 7.48404 490.497 7.55556V7.55556L487.575 10.0263L490.153 9.13112L495.166 8.12849L499.073 7.48845C499.236 7.46188 499.39 7.40095 499.527 7.30975L499.773 7.14621C499.827 7.10981 499.868 7.05625 499.889 6.994V6.994C499.947 6.81994 499.834 6.63569 499.652 6.60881L499.104 6.52767C499.057 6.52065 499.009 6.51813 498.961 6.52015L495.631 6.66035Z"/>
<path d="M460.759 19.304L460.441 23.9804L466.237 20.2977L472.249 18.0116L460.759 19.304Z"/>
<path d="M462.365 31.5471L463.117 33.5166L473.359 24.8331L466.237 20.2977L462.365 31.5471Z"/>
<path d="M472.249 18.0116L466.237 20.2977L473.359 24.8331L472.249 18.0116Z"/>
<path d="M483.6 16.1496L472.249 18.0116L473.359 24.8331L483.6 16.1496Z"/>
<path d="M483.6 16.1496L473.359 24.8331L478.202 27.0398L483.6 16.1496Z"/>
<path d="M483.6 20.6614V16.1496L478.202 27.0398L483.6 20.6614Z"/>
<path d="M483.353 27.7579C483.517 26.657 483.6 25.5454 483.6 24.4324V20.6614L478.202 27.0398L481.093 34.376L481.157 34.2653C481.805 33.149 482.325 31.9635 482.707 30.731V30.731C482.968 29.8917 483.163 29.0338 483.293 28.1646L483.353 27.7579Z"/>
<path d="M473.359 24.8331L472.804 33.4181L478.202 27.0398L473.359 24.8331Z"/>
<path d="M460.441 23.9804L462.365 31.5471L466.237 20.2977L460.441 23.9804Z"/>
<path d="M456.278 22.0445L456.6 25.8894L460.441 23.9804L456.278 22.0445Z"/>
<path d="M460.864 30.315C461.189 30.8373 461.666 31.2474 462.231 31.4897L462.365 31.5471L460.441 23.9804L456.6 25.8894L457.184 26.7526C457.387 27.0541 457.673 27.2912 458.007 27.4359V27.4359C458.373 27.5945 458.68 27.8638 458.885 28.2059L459.166 28.6727C459.337 28.9583 459.594 29.1821 459.901 29.3118V29.3118C460.2 29.4382 460.452 29.6539 460.624 29.9293L460.864 30.315Z"/>
<path d="M473.359 24.8331L463.117 33.5166L472.804 33.4181L473.359 24.8331Z"/>
<path d="M472.804 33.4181L463.117 33.5166L468.489 43.3997L472.804 33.4181Z"/>
<path d="M478.202 27.0398L472.804 33.4181L478.909 37.0974L478.202 27.0398Z"/>
<path d="M478.909 37.0974L481.093 34.376L478.202 27.0398L478.909 37.0974Z"/>
<path d="M475.686 39.7114L478.909 37.0974L472.804 33.4181L472.249 42.0032L475.686 39.7114Z"/>
<path d="M468.489 43.3997L472.249 42.0032L472.804 33.4181L468.489 43.3997Z"/>
<path d="M463.117 33.5166C462.27 34.1753 461.594 35.0281 461.146 36.0029L461.005 36.3096L464.245 43.5071L463.117 33.5166V33.5166Z"/>
<path d="M468.489 43.3997L463.117 33.5166L464.245 43.5071L468.489 43.3997Z"/>
<path d="M459.529 41.3943C459.464 42.1649 459.629 42.9374 460.002 43.6145V43.6145L464.245 43.5071L461.005 36.3096L459.912 39.2997C459.734 39.7869 459.622 40.2956 459.578 40.8124L459.529 41.3943Z"/>
<path d="M468.489 43.3997L464.245 43.5071L460.002 43.6145L463.046 50.633L468.489 43.3997Z"/>
<path d="M468.202 47.7325L468.489 43.3997L463.046 50.633L468.202 47.7325Z"/>
<path d="M460.002 43.6145L458.606 49.2722L463.046 50.633L460.002 43.6145Z"/>
<path d="M458.606 49.2722L457.137 55.3239L462.401 53.6588L463.046 50.633L458.606 49.2722Z"/>
<path d="M463.046 50.633L467.021 56.792L468.202 47.7325L463.046 50.633Z"/>
<path d="M467.021 56.792L463.046 50.633L462.401 53.6588L464.407 59.1553L464.979 60.6186C465.026 60.7389 465.105 60.8441 465.208 60.9227V60.9227C465.628 61.2446 466.24 61.0096 466.336 60.4894L467.021 56.792Z"/>
<path d="M457.899 58.2809C457.918 58.8041 458.605 58.9827 458.876 58.5345L459.214 57.9737L462.401 53.6588L457.137 55.3239L457.007 57.2507C456.991 57.487 457.283 57.6098 457.441 57.4331V57.4331C457.59 57.2659 457.867 57.366 457.875 57.5901L457.899 58.2809Z"/>
<path d="M460.264 61.1459C460.429 60.4757 461.411 60.5783 461.434 61.268V61.268L462.401 53.6588L459.214 57.9737V59.406L459.015 63.6703C459.001 63.9817 459.405 64.1146 459.578 63.8552V63.8552C459.598 63.8256 459.613 63.7927 459.621 63.7581L460.264 61.1459Z"/>
<path d="M463.31 59.4793C463.437 59.6712 463.702 59.713 463.883 59.5698L464.407 59.1553L462.401 53.6588L461.434 61.268L461.54 64.4789C461.541 64.5098 461.553 64.5394 461.573 64.5628V64.5628C461.647 64.6492 461.788 64.6116 461.809 64.4997L462.786 59.3448C462.836 59.0828 463.213 59.09 463.253 59.3538V59.3538C463.258 59.3882 463.271 59.421 463.29 59.45L463.31 59.4793Z"/>
</mask>
<path d="M434.212 0.0431665C434.098 0.0144994 433.982 0 433.865 0H432.785C432.391 0 432.105 0.376433 432.212 0.756249V0.756249C432.237 0.847568 432.284 0.931461 432.349 1.00095L433.647 2.39916L435.402 1.59347L437.156 0.787783L434.212 0.0431665Z" fill="#BE4D42"/>
<path d="M441.811 2.75724L437.156 0.787783L436.977 7.55556L439.394 5.1564L441.811 2.75724Z" fill="#CF5956"/>
<path d="M435.67 5.38847C435.705 5.86531 435.894 6.31784 436.209 6.67766L436.977 7.55556L437.156 0.787783L435.402 1.59347L433.647 2.39916L435.133 4.10113C435.447 4.46067 435.635 4.91247 435.67 5.38847V5.38847Z" fill="#CF5956"/>
<path d="M449.474 6.37388L441.811 2.75724L439.394 5.1564L441.914 5.46077L444.434 5.76514L449.474 6.37388Z" fill="#DD7368"/>
<path d="M439.394 5.1564L436.977 7.55556L444.434 5.76514L441.914 5.46077L439.394 5.1564Z" fill="#D1665C"/>
<path d="M438.837 9.86331C438.816 10.0525 438.899 10.238 439.054 10.3486V10.3486L449.474 6.37388L444.434 5.76514L436.977 7.55556L438.376 8.47132C438.726 8.70044 438.919 9.10647 438.874 9.5224L438.837 9.86331Z" fill="#D1645A"/>
<path d="M443.408 15.4016C443.937 15.9183 444.569 16.3172 445.264 16.5721L445.965 16.8299L447.72 11.6019L449.474 6.37388L439.054 10.3486L440.733 11.7144C441.395 12.2522 441.92 12.9481 442.259 13.7302V13.7302C442.529 14.3547 442.921 14.926 443.408 15.4016V15.4016Z" fill="#E6827F"/>
<path d="M457.818 10.9573L449.474 6.37388L447.72 11.6019L457.818 10.9573Z" fill="#DD766F"/>
<path d="M448.873 19.9175C449.458 20.2188 449.969 20.6452 450.37 21.1666L450.835 21.7715L447.72 11.6019L445.965 16.8299L446.311 17.4641C446.51 17.8279 446.748 18.1683 447.023 18.4787V18.4787C447.296 18.787 447.602 19.0638 447.936 19.3041L448.311 19.5733C448.49 19.7017 448.677 19.8168 448.873 19.9175V19.9175Z" fill="#B587B6"/>
<path d="M447.72 11.6019L450.835 21.7715L454.326 16.3644L447.72 11.6019Z" fill="#BD92BD"/>
<path d="M457.818 10.9573L447.72 11.6019L454.326 16.3644L457.818 10.9573Z" fill="#E4786E"/>
<path d="M457.818 10.9573L454.326 16.3644L463.619 13.7146L457.818 10.9573Z" fill="#DF7F63"/>
<path d="M454.326 16.3644L450.835 21.7715L455.956 18.1996L458.516 16.4136L463.619 13.7146L454.326 16.3644Z" fill="#D684AE"/>
<path d="M454.588 25.0878C454.83 25.2631 455.098 25.3995 455.382 25.4921L456.6 25.8894L456.278 22.0445L455.956 18.1996L450.835 21.7715L451.641 22.5014C451.864 22.7041 452.133 22.85 452.425 22.9268V22.9268C453.002 23.0785 453.472 23.4944 453.694 24.0478L453.706 24.0775C453.842 24.419 454.073 24.7148 454.371 24.9306L454.588 25.0878Z" fill="#CC9DC1"/>
<path d="M458.516 16.4136L455.956 18.1996L456.278 22.0445L458.516 16.4136Z" fill="#D59DA8"/>
<path d="M460.441 23.9804L458.516 16.4136L456.278 22.0445L460.441 23.9804Z" fill="#D59DA8"/>
<path d="M463.619 13.7146L458.516 16.4136L460.441 23.9804L460.759 19.304L463.619 13.7146Z" fill="#DC7D61"/>
<path d="M472.249 18.0116L467.934 15.8631L463.619 13.7146L460.759 19.304L472.249 18.0116Z" fill="#D9B72C"/>
<path d="M463.619 9.16693L460.45 6.71406L467.934 15.8631L472.249 18.0116L467.826 12.891L463.619 9.16693Z" fill="#C9AB3B"/>
<path d="M460.45 6.71406L457.818 10.9573L463.619 13.7146L467.934 15.8631L460.45 6.71406Z" fill="#765136"/>
<path d="M453.266 5.25745C454.745 6.71397 456.069 8.32005 457.216 10.0499L457.818 10.9573L460.45 6.71406L453.127 5.12059L453.266 5.25745Z" fill="#A64838"/>
<path d="M457.281 4.26119L454.237 2.07688L453.915 1.88705L453.127 5.12059L460.45 6.71406L457.281 4.26119Z" fill="#7C4436"/>
<path d="M451.336 2.39916L453.127 5.12059L453.915 1.88705L451.808 0.646138C451.687 0.574765 451.549 0.537125 451.408 0.537125H451.177C450.87 0.537125 450.62 0.786301 450.62 1.09367V1.09367C450.62 1.19798 450.65 1.30019 450.705 1.38865L451.336 2.39916Z" fill="#A35936"/>
<path d="M474.998 9.68483C474.504 10.0782 474.058 10.5295 473.672 11.0291L472.786 12.1748L476.599 10.1517L480.413 8.12849H479.227C478.472 8.12849 477.722 8.26006 477.011 8.51731V8.51731C476.347 8.75781 475.727 9.10483 475.174 9.54475L474.998 9.68483Z" fill="#C88C47"/>
<path d="M484.996 8.88046L476.599 10.1517L483.6 16.1496L484.996 8.88046Z" fill="#995D3E"/>
<path d="M484.996 8.88046L480.413 8.12849L476.599 10.1517L484.996 8.88046Z" fill="#D16055"/>
<path d="M472.786 12.1748C472.288 13.8565 472.092 15.6129 472.206 17.3629L472.249 18.0116L476.599 10.1517L472.786 12.1748V12.1748Z" fill="#3D7354"/>
<path d="M476.599 10.1517L472.249 18.0116L483.6 16.1496L476.599 10.1517Z" fill="#89642F"/>
<path d="M484.781 12.7187C484.781 11.9659 485.199 11.2751 485.865 10.9249L487.575 10.0263L484.996 8.88046L483.6 16.1496L484.244 14.7172L484.686 13.3348C484.749 13.1356 484.781 12.9278 484.781 12.7187V12.7187Z" fill="#BC4452"/>
<path d="M488.147 8.30753L484.996 8.88046L487.575 10.0263L490.497 7.55556L488.147 8.30753Z" fill="#D64D55"/>
<path d="M495.631 6.66035L491.181 7.39103C490.949 7.42904 490.721 7.48404 490.497 7.55556V7.55556L487.575 10.0263L490.153 9.13112L495.166 8.12849L499.073 7.48845C499.236 7.46188 499.39 7.40095 499.527 7.30975L499.773 7.14621C499.827 7.10981 499.868 7.05625 499.889 6.994V6.994C499.947 6.81994 499.834 6.63569 499.652 6.60881L499.104 6.52767C499.057 6.52065 499.009 6.51813 498.961 6.52015L495.631 6.66035Z" fill="#703342"/>
<path d="M460.759 19.304L460.441 23.9804L466.237 20.2977L472.249 18.0116L460.759 19.304Z" fill="#DCB834"/>
<path d="M462.365 31.5471L463.117 33.5166L473.359 24.8331L466.237 20.2977L462.365 31.5471Z" fill="#DDAC3D"/>
<path d="M472.249 18.0116L466.237 20.2977L473.359 24.8331L472.249 18.0116Z" fill="#CAA146"/>
<path d="M483.6 16.1496L472.249 18.0116L473.359 24.8331L483.6 16.1496Z" fill="#54934A"/>
<path d="M483.6 16.1496L473.359 24.8331L478.202 27.0398L483.6 16.1496Z" fill="#40B0CA"/>
<path d="M483.6 20.6614V16.1496L478.202 27.0398L483.6 20.6614Z" fill="#3A73AD"/>
<path d="M483.353 27.7579C483.517 26.657 483.6 25.5454 483.6 24.4324V20.6614L478.202 27.0398L481.093 34.376L481.157 34.2653C481.805 33.149 482.325 31.9635 482.707 30.731V30.731C482.968 29.8917 483.163 29.0338 483.293 28.1646L483.353 27.7579Z" fill="#3D87A2"/>
<path d="M473.359 24.8331L472.804 33.4181L478.202 27.0398L473.359 24.8331Z" fill="#365896"/>
<path d="M460.441 23.9804L462.365 31.5471L466.237 20.2977L460.441 23.9804Z" fill="#E39F8A"/>
<path d="M456.278 22.0445L456.6 25.8894L460.441 23.9804L456.278 22.0445Z" fill="#B7586B"/>
<path d="M460.864 30.315C461.189 30.8373 461.666 31.2474 462.231 31.4897L462.365 31.5471L460.441 23.9804L456.6 25.8894L457.184 26.7526C457.387 27.0541 457.673 27.2912 458.007 27.4359V27.4359C458.373 27.5945 458.68 27.8638 458.885 28.2059L459.166 28.6727C459.337 28.9583 459.594 29.1821 459.901 29.3118V29.3118C460.2 29.4382 460.452 29.6539 460.624 29.9293L460.864 30.315Z" fill="#CA836D"/>
<path d="M473.359 24.8331L463.117 33.5166L472.804 33.4181L473.359 24.8331Z" fill="#E4A08B"/>
<path d="M472.804 33.4181L463.117 33.5166L468.489 43.3997L472.804 33.4181Z" fill="#C86B4A"/>
<path d="M478.202 27.0398L472.804 33.4181L478.909 37.0974L478.202 27.0398Z" fill="#387675"/>
<path d="M478.909 37.0974L481.093 34.376L478.202 27.0398L478.909 37.0974Z" fill="#2E9490"/>
<path d="M475.686 39.7114L478.909 37.0974L472.804 33.4181L472.249 42.0032L475.686 39.7114Z" fill="#395B4D"/>
<path d="M468.489 43.3997L472.249 42.0032L472.804 33.4181L468.489 43.3997Z" fill="#28654C"/>
<path d="M463.117 33.5166C462.27 34.1753 461.594 35.0281 461.146 36.0029L461.005 36.3096L464.245 43.5071L463.117 33.5166V33.5166Z" fill="#76562D"/>
<path d="M468.489 43.3997L463.117 33.5166L464.245 43.5071L468.489 43.3997Z" fill="#656231"/>
<path d="M459.529 41.3943C459.464 42.1649 459.629 42.9374 460.002 43.6145V43.6145L464.245 43.5071L461.005 36.3096L459.912 39.2997C459.734 39.7869 459.622 40.2956 459.578 40.8124L459.529 41.3943Z" fill="#8F802A"/>
<path d="M468.489 43.3997L464.245 43.5071L460.002 43.6145L463.046 50.633L468.489 43.3997Z" fill="#624837"/>
<path d="M468.202 47.7325L468.489 43.3997L463.046 50.633L468.202 47.7325Z" fill="#4A2B32"/>
<path d="M460.002 43.6145L458.606 49.2722L463.046 50.633L460.002 43.6145Z" fill="#6D3B33"/>
<path d="M458.606 49.2722L457.137 55.3239L462.401 53.6588L463.046 50.633L458.606 49.2722Z" fill="#42252C"/>
<path d="M463.046 50.633L467.021 56.792L468.202 47.7325L463.046 50.633Z" fill="#30282B"/>
<path d="M467.021 56.792L463.046 50.633L462.401 53.6588L464.407 59.1553L464.979 60.6186C465.026 60.7389 465.105 60.8441 465.208 60.9227V60.9227C465.628 61.2446 466.24 61.0096 466.336 60.4894L467.021 56.792Z" fill="#37262C"/>
<path d="M457.899 58.2809C457.918 58.8041 458.605 58.9827 458.876 58.5345L459.214 57.9737L462.401 53.6588L457.137 55.3239L457.007 57.2507C456.991 57.487 457.283 57.6098 457.441 57.4331V57.4331C457.59 57.2659 457.867 57.366 457.875 57.5901L457.899 58.2809Z" fill="#653129"/>
<path d="M460.264 61.1459C460.429 60.4757 461.411 60.5783 461.434 61.268V61.268L462.401 53.6588L459.214 57.9737V59.406L459.015 63.6703C459.001 63.9817 459.405 64.1146 459.578 63.8552V63.8552C459.598 63.8256 459.613 63.7927 459.621 63.7581L460.264 61.1459Z" fill="#513029"/>
<path d="M463.31 59.4793C463.437 59.6712 463.702 59.713 463.883 59.5698L464.407 59.1553L462.401 53.6588L461.434 61.268L461.54 64.4789C461.541 64.5098 461.553 64.5394 461.573 64.5628V64.5628C461.647 64.6492 461.788 64.6116 461.809 64.4997L462.786 59.3448C462.836 59.0828 463.213 59.09 463.253 59.3538V59.3538C463.258 59.3882 463.271 59.421 463.29 59.45L463.31 59.4793Z" fill="#6E3D2E"/>
<path d="M437.156 0.787783L437.256 0.790428L437.261 0.629892L437.115 0.696906L437.156 0.787783ZM449.474 6.37388L449.569 6.4057L449.608 6.28932L449.486 6.2746L449.474 6.37388ZM453.127 5.12059L453.03 5.09692L453.005 5.19651L453.106 5.2183L453.127 5.12059ZM484.996 8.88046L485.037 8.78908L485.01 8.77722L484.981 8.78159L484.996 8.88046ZM487.575 10.0263L487.534 10.1177L487.591 10.1432L487.639 10.1027L487.575 10.0263ZM483.6 16.1496L483.689 16.194L483.695 16.1818L483.698 16.1684L483.6 16.1496ZM468.489 43.3997L468.569 43.4598L468.576 43.4503L468.58 43.4394L468.489 43.3997ZM478.909 37.0974L478.857 37.1831L479.022 37.2824L479.009 37.0904L478.909 37.0974ZM463.117 33.5166L463.053 33.4403L463.012 33.4748L463.018 33.5278L463.117 33.5166ZM460.002 43.6145L460 43.5146L459.851 43.5183L459.91 43.6543L460.002 43.6145ZM462.365 31.5471L462.269 31.5718L462.351 31.8962L462.46 31.5797L462.365 31.5471ZM456.6 25.8894L456.501 25.8978L456.513 26.0445L456.645 25.979L456.6 25.8894ZM450.835 21.7715L450.74 21.8007L450.78 21.932L450.892 21.8535L450.835 21.7715ZM436.977 7.55556L436.877 7.55291L436.874 7.68323L437.001 7.65279L436.977 7.55556ZM460.45 6.71406L460.527 6.65074L460.505 6.62376L460.471 6.61635L460.45 6.71406ZM463.619 13.7146L463.663 13.6251L463.662 13.6243L463.619 13.7146ZM458.516 16.4136L458.469 16.3246L458.459 16.3316L458.516 16.4136ZM460.759 19.304L460.67 19.2585L460.66 19.2768L460.659 19.2973L460.759 19.304ZM466.237 20.2977L466.202 20.2043L466.192 20.2079L466.184 20.2133L466.237 20.2977ZM462.962 50.6872L466.937 56.8462L467.105 56.7378L463.13 50.5787L462.962 50.6872ZM468.153 47.6453L462.997 50.5458L463.095 50.7201L468.251 47.8196L468.153 47.6453ZM437.056 0.785138L436.877 7.55291L437.077 7.5582L437.256 0.790428L437.056 0.785138ZM441.741 2.68627L439.324 5.08543L439.465 5.22737L441.882 2.82821L441.741 2.68627ZM439.324 5.08543L436.907 7.48458L437.048 7.62653L439.465 5.22737L439.324 5.08543ZM444.422 5.86442L449.462 6.47316L449.486 6.2746L444.446 5.66586L444.422 5.86442ZM444.411 5.6679L436.954 7.45832L437.001 7.65279L444.458 5.86238L444.411 5.6679ZM439.09 10.442L449.51 6.46731L449.439 6.28045L439.019 10.2552L439.09 10.442ZM449.38 6.34206L447.625 11.5701L447.815 11.6337L449.569 6.4057L449.38 6.34206ZM447.625 11.5701L445.87 16.7981L446.06 16.8617L447.815 11.6337L447.625 11.5701ZM447.726 11.7017L457.824 11.0571L457.811 10.8575L447.713 11.5021L447.726 11.7017ZM447.624 11.6312L450.74 21.8007L450.931 21.7422L447.815 11.5726L447.624 11.6312ZM453.818 1.86338L453.03 5.09692L453.224 5.14426L454.012 1.91072L453.818 1.86338ZM460.471 6.61635L453.148 5.02288L453.106 5.2183L460.428 6.81177L460.471 6.61635ZM457.903 11.0101L460.535 6.76677L460.365 6.66135L457.733 10.9046L457.903 11.0101ZM450.919 21.8257L454.41 16.4186L454.242 16.3102L450.751 21.7172L450.919 21.8257ZM454.41 16.4186L457.902 11.0116L457.734 10.9031L454.242 16.3102L454.41 16.4186ZM454.354 16.4606L463.646 13.8108L463.591 13.6184L454.299 16.2682L454.354 16.4606ZM455.899 18.1176L450.778 21.6894L450.892 21.8535L456.013 18.2816L455.899 18.1176ZM463.572 13.6262L458.469 16.3252L458.563 16.502L463.666 13.803L463.572 13.6262ZM458.459 16.3316L455.899 18.1176L456.013 18.2816L458.573 16.4957L458.459 16.3316ZM458.419 16.4383L460.344 24.005L460.538 23.9557L458.613 16.389L458.419 16.4383ZM460.344 24.005L462.269 31.5718L462.462 31.5225L460.538 23.9557L460.344 24.005ZM460.541 23.9872L460.858 19.3108L460.659 19.2973L460.341 23.9736L460.541 23.9872ZM460.848 19.3496L463.708 13.7601L463.53 13.669L460.67 19.2585L460.848 19.3496ZM460.77 19.4034L472.26 18.111L472.237 17.9122L460.747 19.2047L460.77 19.4034ZM455.856 18.2079L456.178 22.0529L456.378 22.0361L456.055 18.1912L455.856 18.2079ZM456.178 22.0529L456.501 25.8978L456.7 25.8811L456.378 22.0361L456.178 22.0529ZM456.371 22.0814L458.609 16.4506L458.423 16.3767L456.185 22.0076L456.371 22.0814ZM460.483 23.8897L456.32 21.9538L456.236 22.1352L460.399 24.0711L460.483 23.8897ZM456.645 25.979L460.485 24.0699L460.396 23.8908L456.556 25.7999L456.645 25.979ZM460.494 24.0648L466.291 20.3821L466.184 20.2133L460.387 23.896L460.494 24.0648ZM466.273 20.3912L472.284 18.1051L472.213 17.9181L466.202 20.2043L466.273 20.3912ZM466.143 20.2652L462.271 31.5146L462.46 31.5797L466.332 20.3303L466.143 20.2652ZM480.366 8.04015L476.552 10.0633L476.646 10.24L480.46 8.21683L480.366 8.04015ZM476.552 10.0633L472.739 12.0865L472.833 12.2632L476.646 10.24L476.552 10.0633ZM476.512 10.1032L472.161 17.9632L472.336 18.06L476.687 10.2001L476.512 10.1032ZM476.614 10.2505L485.011 8.97934L484.981 8.78159L476.584 10.0528L476.614 10.2505ZM476.534 10.2276L483.535 16.2255L483.665 16.0736L476.664 10.0757L476.534 10.2276ZM472.265 18.1103L483.616 16.2482L483.584 16.0509L472.232 17.9129L472.265 18.1103ZM484.898 8.8616L483.502 16.1307L483.698 16.1684L485.095 8.89933L484.898 8.8616ZM484.956 8.97184L487.534 10.1177L487.615 9.93495L485.037 8.78908L484.956 8.97184ZM490.433 7.47919L487.51 9.94996L487.639 10.1027L490.562 7.63193L490.433 7.47919ZM483.535 16.0733L473.294 24.7568L473.423 24.9093L483.664 16.2258L483.535 16.0733ZM473.294 24.7568L463.053 33.4403L463.182 33.5929L473.423 24.9093L473.294 24.7568ZM472.15 18.0276L473.26 24.8491L473.457 24.817L472.347 17.9955L472.15 18.0276ZM466.184 20.3821L473.305 24.9174L473.412 24.7487L466.291 20.2134L466.184 20.3821ZM473.259 24.8266L472.704 33.4117L472.903 33.4246L473.458 24.8395L473.259 24.8266ZM472.704 33.4117L472.149 41.9967L472.348 42.0096L472.903 33.4246L472.704 33.4117ZM472.88 33.4827L478.278 27.1044L478.125 26.9752L472.727 33.3535L472.88 33.4827ZM478.278 27.1044L483.676 20.726L483.523 20.5968L478.125 26.9752L478.278 27.1044ZM473.317 24.9241L478.16 27.1308L478.243 26.9488L473.4 24.7421L473.317 24.9241ZM483.51 16.1051L478.112 26.9953L478.291 27.0842L483.689 16.194L483.51 16.1051ZM478.109 27.0764L481 34.4127L481.186 34.3393L478.295 27.0031L478.109 27.0764ZM472.752 33.5038L478.857 37.1831L478.961 37.0118L472.855 33.3325L472.752 33.5038ZM478.102 27.0468L478.809 37.1044L479.009 37.0904L478.301 27.0327L478.102 27.0468ZM472.803 33.3181L463.116 33.4166L463.118 33.6166L472.805 33.5181L472.803 33.3181ZM463.03 33.5643L468.401 43.4474L468.577 43.3519L463.205 33.4688L463.03 33.5643ZM472.712 33.3784L468.397 43.36L468.58 43.4394L472.895 33.4578L472.712 33.3784ZM468.486 43.2997L464.243 43.4071L464.248 43.6071L468.491 43.4997L468.486 43.2997ZM464.243 43.4071L460 43.5146L460.005 43.7145L464.248 43.6071L464.243 43.4071ZM464.337 43.4661L461.096 36.2686L460.914 36.3507L464.154 43.5482L464.337 43.4661ZM463.018 33.5278L464.146 43.5183L464.345 43.4959L463.217 33.5054L463.018 33.5278ZM458.576 49.3679L463.017 50.7286L463.075 50.5374L458.635 49.1766L458.576 49.3679ZM459.91 43.6543L462.954 50.6728L463.138 50.5932L460.094 43.5747L459.91 43.6543ZM468.409 43.3396L462.966 50.5728L463.126 50.6931L468.569 43.4598L468.409 43.3396ZM462.948 50.6121L462.303 53.6379L462.499 53.6796L463.144 50.6538L462.948 50.6121ZM462.371 53.5634L457.107 55.2285L457.168 55.4192L462.431 53.7541L462.371 53.5634ZM464.5 59.1211L462.495 53.6245L462.307 53.693L464.313 59.1896L464.5 59.1211ZM459.295 58.0331L462.482 53.7182L462.321 53.5994L459.134 57.9143L459.295 58.0331ZM461.534 61.2806L462.5 53.6714L462.302 53.6462L461.335 61.2554L461.534 61.2806ZM437.115 0.696906L435.36 1.50259L435.444 1.68435L437.198 0.87866L437.115 0.696906ZM435.36 1.50259L433.605 2.30828L433.689 2.49003L435.444 1.68435L435.36 1.50259ZM439.382 5.25568L441.902 5.56005L441.926 5.36149L439.406 5.05712L439.382 5.25568ZM441.902 5.56005L444.422 5.86442L444.446 5.66586L441.926 5.36149L441.902 5.56005ZM454.385 16.2833L447.778 11.5208L447.661 11.683L454.268 16.4455L454.385 16.2833ZM463.662 13.6243L457.861 10.867L457.775 11.0477L463.576 13.8049L463.662 13.6243ZM463.574 13.8041L467.889 15.9526L467.978 15.7736L463.663 13.6251L463.574 13.8041ZM467.889 15.9526L472.204 18.1011L472.293 17.9221L467.978 15.7736L467.889 15.9526ZM460.372 6.77738L467.856 15.9264L468.011 15.7998L460.527 6.65074L460.372 6.77738ZM457.818 10.9573L457.722 11.1326L457.984 10.8468L457.818 10.9573ZM437.156 0.787783L437.234 0.60359L437.22 0.597634L437.205 0.593886L437.156 0.787783ZM441.811 2.75724L441.897 2.57622L441.889 2.57305L441.811 2.75724ZM449.474 6.37388L449.571 6.19826L449.56 6.19301L449.474 6.37388ZM453.127 5.12059L452.96 5.23051L452.971 5.24822L452.987 5.26309L453.127 5.12059ZM451.336 2.39916L451.167 2.50519L451.169 2.50908L451.336 2.39916ZM454.237 2.07688L454.354 1.91439L454.346 1.90913L454.338 1.90456L454.237 2.07688ZM457.281 4.26119L457.403 4.10293L457.397 4.0987L457.281 4.26119ZM463.619 9.16693L463.752 9.01684L463.741 9.00877L463.619 9.16693ZM472.249 18.0116L472.097 18.1423L472.487 18.5936L472.448 17.9986L472.249 18.0116ZM480.413 8.12849L480.445 7.93113L480.429 7.92849H480.413V8.12849ZM484.996 8.88046L484.964 9.07783L484.998 9.08342L485.032 9.07724L484.996 8.88046ZM488.147 8.30753L488.183 8.5043L488.196 8.50198L488.208 8.49802L488.147 8.30753ZM495.631 6.66035L495.623 6.46052L495.611 6.46103L495.599 6.46299L495.631 6.66035ZM490.153 9.13112L490.113 8.93501L490.1 8.93769L490.087 8.94219L490.153 9.13112ZM495.166 8.12849L495.134 7.931L495.127 7.93237L495.166 8.12849ZM487.575 10.0263L487.509 9.8374L487.495 9.84232L487.481 9.8493L487.575 10.0263ZM483.6 16.1496L483.417 16.0675L483.4 16.1066V16.1496H483.6ZM484.244 14.7172L484.427 14.7993L484.431 14.7889L484.435 14.778L484.244 14.7172ZM481.093 34.376L481.249 34.5012L481.259 34.4894L481.266 34.4763L481.093 34.376ZM468.489 43.3997L468.419 43.2122L468.298 43.2573L468.289 43.3865L468.489 43.3997ZM475.686 39.7114L475.797 39.8778L475.805 39.8726L475.812 39.8668L475.686 39.7114ZM478.909 37.0974L479.035 37.2527L479.051 37.2393L479.065 37.2226L478.909 37.0974ZM472.249 42.0032L472.318 42.1906L472.34 42.1825L472.359 42.1696L472.249 42.0032ZM467.021 56.792L467.217 56.8285L467.219 56.8179L467.021 56.792ZM468.202 47.7325L468.401 47.7584L468.402 47.7457L468.202 47.7325ZM464.407 59.1553L464.593 59.0825L464.494 58.8308L464.282 58.9985L464.407 59.1553ZM459.214 59.406L459.414 59.4153V59.406H459.214ZM459.214 57.9737H459.414V57.2551L459.043 57.8703L459.214 57.9737ZM457.137 55.3239L456.943 55.2767L456.939 55.2933L456.938 55.3104L457.137 55.3239ZM458.606 49.2722L458.411 49.2243L458.411 49.2251L458.606 49.2722ZM461.005 36.3096L460.823 36.2261L460.82 36.2334L460.817 36.241L461.005 36.3096ZM462.365 31.5471L462.552 31.4758L462.522 31.3967L462.444 31.3633L462.365 31.5471ZM456.6 25.8894L456.766 25.7774L456.728 25.7206L456.662 25.6993L456.6 25.8894ZM445.965 16.8299L446.141 16.7341L446.105 16.6681L446.034 16.6422L445.965 16.8299ZM450.835 21.7715L450.677 21.8934L450.688 21.9076L450.701 21.9197L450.835 21.7715ZM436.977 7.55556L436.827 7.68726L436.845 7.70788L436.868 7.7229L436.977 7.55556ZM433.647 2.39916L433.798 2.26756L433.794 2.26307L433.647 2.39916ZM453.915 1.88705L453.813 2.05938L453.813 2.05938L453.915 1.88705ZM467.826 12.891L467.978 12.7603L467.969 12.7501L467.959 12.7412L467.826 12.891ZM436.209 6.67766L436.36 6.54596L436.209 6.67766ZM438.837 9.86331L438.638 9.84182L438.837 9.86331ZM438.874 9.5224L438.675 9.5009L438.874 9.5224ZM438.376 8.47132L438.486 8.30398L438.376 8.47132ZM445.264 16.5721L445.333 16.3844L445.264 16.5721ZM446.311 17.4641L446.487 17.3683L446.311 17.4641ZM448.311 19.5733L448.194 19.7357L448.311 19.5733ZM450.37 21.1666L450.528 21.0447L450.37 21.1666ZM455.382 25.4921L455.444 25.3019L455.382 25.4921ZM454.588 25.0878L454.471 25.2498L454.588 25.0878ZM459.166 28.6727L459.337 28.5698L459.166 28.6727ZM460.624 29.9293L460.454 30.0349L460.624 29.9293ZM461.146 36.0029L461.328 36.0865L461.146 36.0029ZM459.578 40.8124L459.778 40.8292L459.578 40.8124ZM459.621 63.7581L459.815 63.8059L459.621 63.7581ZM461.54 64.4789L461.34 64.4855L461.54 64.4789ZM463.883 59.5698L463.759 59.413L463.883 59.5698ZM463.31 59.4793L463.143 59.5902L463.31 59.4793ZM464.979 60.6186L465.165 60.5457L464.979 60.6186ZM447.936 19.3041L447.82 19.4665L447.936 19.3041ZM483.353 27.7579L483.551 27.7874L483.353 27.7579ZM453.706 24.0775L453.891 24.0032L453.706 24.0775ZM484.686 13.3348L484.495 13.274L484.686 13.3348ZM457.184 26.7526L457.349 26.6406L457.184 26.7526ZM499.527 7.30975L499.416 7.14334L499.527 7.30975ZM499.073 7.48845L499.041 7.29108L499.073 7.48845ZM458.885 28.2059L459.057 28.103L458.885 28.2059ZM499.773 7.14621L499.662 6.9798L499.773 7.14621ZM462.231 31.4897L462.153 31.6735L462.231 31.4897ZM460.864 30.315L461.033 30.2093L460.864 30.315ZM499.652 6.60881L499.623 6.80665L499.652 6.60881ZM498.961 6.52015L498.97 6.71997L498.961 6.52015ZM499.104 6.52767L499.075 6.72551L499.104 6.52767ZM457.875 57.5901L458.075 57.5832L457.875 57.5901ZM475.174 9.54475L475.298 9.70123L475.174 9.54475ZM458.876 58.5345L458.705 58.4311L458.876 58.5345ZM473.672 11.0291L473.83 11.1515L473.672 11.0291ZM474.998 9.68483L474.873 9.52834L474.998 9.68483ZM483.293 28.1646L483.491 28.1941L483.293 28.1646ZM472.206 17.3629L472.406 17.3499L472.206 17.3629ZM462.786 59.3448L462.983 59.382L462.786 59.3448ZM466.336 60.4894L466.139 60.453L466.336 60.4894ZM434.212 0.0431665L434.163 0.237063L434.212 0.0431665ZM457.216 10.0499L457.383 9.93933L457.216 10.0499ZM453.266 5.25745L453.126 5.39995L453.266 5.25745ZM481.157 34.2653L480.984 34.165L481.157 34.2653ZM457.007 57.2507L456.808 57.2372L457.007 57.2507ZM491.181 7.39103L491.148 7.19367L491.181 7.39103ZM459.015 63.6703L459.215 63.6797L459.015 63.6703ZM461.809 64.4997L461.613 64.4625L461.809 64.4997ZM451.808 0.646138L451.707 0.818464L451.808 0.646138ZM459.529 41.3943L459.33 41.3775L459.529 41.3943ZM485.865 10.9249L485.772 10.7478L485.865 10.9249ZM463.29 59.45L463.124 59.5609L463.29 59.45ZM450.705 1.38865L450.875 1.28265L450.705 1.38865ZM432.785 0.2H433.865V-0.2H432.785V0.2ZM434.163 0.237063L437.107 0.98168L437.205 0.593886L434.261 -0.15073L434.163 0.237063ZM437.078 0.971977L441.734 2.94143L441.889 2.57305L437.234 0.60359L437.078 0.971977ZM441.726 2.93811L449.389 6.55475L449.56 6.19301L441.897 2.57637L441.726 2.93811ZM449.378 6.54917L457.722 11.1326L457.914 10.7821L449.571 6.19859L449.378 6.54917ZM457.984 10.8468L457.383 9.93933L457.049 10.1604L457.651 11.0679L457.984 10.8468ZM453.406 5.11496L453.267 4.97809L452.987 5.26309L453.126 5.39995L453.406 5.11496ZM453.294 5.01067L451.504 2.28923L451.169 2.50908L452.96 5.23051L453.294 5.01067ZM451.506 2.29316L450.875 1.28265L450.535 1.49465L451.167 2.50516L451.506 2.29316ZM451.177 0.737125H451.408V0.337125H451.177V0.737125ZM454.12 2.23937L457.164 4.42368L457.397 4.0987L454.354 1.91439L454.12 2.23937ZM472.448 17.9986L472.406 17.3499L472.007 17.3759L472.049 18.0246L472.448 17.9986ZM472.944 12.2972L473.83 11.1515L473.514 10.9067L472.627 12.0525L472.944 12.2972ZM475.122 9.84131L475.298 9.70123L475.049 9.38826L474.873 9.52834L475.122 9.84131ZM479.227 8.32849H480.413V7.92849H479.227V8.32849ZM480.38 8.32585L484.964 9.07783L485.029 8.6831L480.445 7.93113L480.38 8.32585ZM485.032 9.07724L488.183 8.5043L488.112 8.11076L484.961 8.68369L485.032 9.07724ZM491.213 7.58838L495.664 6.85771L495.599 6.46299L491.148 7.19367L491.213 7.58838ZM495.64 6.86017L498.97 6.71997L498.953 6.32032L495.623 6.46052L495.64 6.86017ZM499.075 6.72551L499.623 6.80665L499.681 6.41097L499.134 6.32983L499.075 6.72551ZM495.127 7.93237L490.113 8.93501L490.192 9.32724L495.205 8.32461L495.127 7.93237ZM499.662 6.9798L499.416 7.14334L499.638 7.47616L499.883 7.31262L499.662 6.9798ZM499.041 7.29108L495.134 7.93112L495.198 8.32586L499.106 7.68582L499.041 7.29108ZM490.087 8.94219L487.509 9.8374L487.64 10.2153L490.218 9.32006L490.087 8.94219ZM487.481 9.8493L485.772 10.7478L485.958 11.1019L487.668 10.2034L487.481 9.8493ZM484.495 13.274L484.054 14.6564L484.435 14.778L484.876 13.3956L484.495 13.274ZM484.062 14.6351L483.417 16.0675L483.782 16.2316L484.427 14.7993L484.062 14.6351ZM483.4 16.1496V20.6614H483.8V16.1496H483.4ZM483.4 20.6614V24.4324H483.8V20.6614H483.4ZM483.156 27.7285L483.095 28.1351L483.491 28.1941L483.551 27.7874L483.156 27.7285ZM480.984 34.165L480.92 34.2756L481.266 34.4763L481.33 34.3657L480.984 34.165ZM480.937 34.2508L478.753 36.9722L479.065 37.2226L481.249 34.5012L480.937 34.2508ZM478.783 36.9421L475.56 39.5561L475.812 39.8668L479.035 37.2527L478.783 36.9421ZM475.575 39.545L472.138 41.8368L472.359 42.1696L475.797 39.8778L475.575 39.545ZM472.179 41.8157L468.419 43.2122L468.558 43.5872L472.318 42.1906L472.179 41.8157ZM466.824 56.7556L466.139 60.453L466.532 60.5258L467.217 56.8284L466.824 56.7556ZM468.289 43.3865L468.003 47.7193L468.402 47.7457L468.688 43.4129L468.289 43.3865ZM465.165 60.5457L464.593 59.0825L464.22 59.2282L464.793 60.6914L465.165 60.5457ZM464.282 58.9985L463.759 59.413L464.007 59.7266L464.531 59.3122L464.282 58.9985ZM463.476 59.3684L463.456 59.339L463.124 59.5609L463.143 59.5902L463.476 59.3684ZM462.59 59.3076L461.613 64.4625L462.006 64.537L462.983 59.382L462.59 59.3076ZM461.74 64.4724L461.634 61.2614L461.235 61.2746L461.34 64.4855L461.74 64.4724ZM460.07 61.0981L459.427 63.7103L459.815 63.8059L460.458 61.1937L460.07 61.0981ZM459.215 63.6797L459.414 59.4153L459.015 59.3967L458.816 63.661L459.215 63.6797ZM459.414 59.406V57.9737H459.014V59.406H459.414ZM459.043 57.8703L458.705 58.4311L459.047 58.6378L459.386 58.077L459.043 57.8703ZM458.099 58.2739L458.075 57.5832L457.675 57.5971L457.699 58.2878L458.099 58.2739ZM457.207 57.2642L457.337 55.3373L456.938 55.3104L456.808 57.2372L457.207 57.2642ZM457.332 55.371L458.8 49.3194L458.411 49.2251L456.943 55.2767L457.332 55.371ZM458.8 49.3202L460.196 43.6625L459.808 43.5666L458.411 49.2243L458.8 49.3202ZM459.728 41.4111L459.778 40.8292L459.379 40.7956L459.33 41.3775L459.728 41.4111ZM460.1 39.3683L461.193 36.3783L460.817 36.241L459.724 39.2311L460.1 39.3683ZM461.186 36.3932L461.328 36.0865L460.964 35.9193L460.823 36.2261L461.186 36.3932ZM463.304 33.4452L462.552 31.4758L462.179 31.6185L462.931 33.5879L463.304 33.4452ZM462.444 31.3633L462.31 31.3059L462.153 31.6735L462.287 31.731L462.444 31.3633ZM461.033 30.2093L460.793 29.8236L460.454 30.0349L460.694 30.4207L461.033 30.2093ZM459.337 28.5698L459.057 28.103L458.714 28.3088L458.994 28.7756L459.337 28.5698ZM457.349 26.6406L456.766 25.7774L456.435 26.0014L457.018 26.8645L457.349 26.6406ZM456.662 25.6993L455.444 25.3019L455.32 25.6822L456.538 26.0796L456.662 25.6993ZM454.705 24.9258L454.488 24.7686L454.253 25.0926L454.471 25.2498L454.705 24.9258ZM453.891 24.0032L453.879 23.9735L453.508 24.1221L453.52 24.1518L453.891 24.0032ZM451.775 22.3532L450.969 21.6233L450.701 21.9197L451.506 22.6496L451.775 22.3532ZM450.994 21.6495L450.528 21.0447L450.211 21.2885L450.677 21.8934L450.994 21.6495ZM448.428 19.4109L448.053 19.1417L447.82 19.4665L448.194 19.7357L448.428 19.4109ZM446.487 17.3683L446.141 16.7341L445.79 16.9257L446.136 17.5598L446.487 17.3683ZM446.034 16.6422L445.333 16.3844L445.195 16.7599L445.896 17.0176L446.034 16.6422ZM440.86 11.5592L439.18 10.1934L438.928 10.5038L440.607 11.8695L440.86 11.5592ZM439.036 9.88481L439.072 9.5439L438.675 9.5009L438.638 9.84182L439.036 9.88481ZM438.486 8.30398L437.087 7.38822L436.868 7.7229L438.267 8.63866L438.486 8.30398ZM437.128 7.42385L436.36 6.54596L436.059 6.80936L436.827 7.68726L437.128 7.42385ZM435.284 3.9696L433.798 2.26763L433.497 2.53069L434.982 4.23267L435.284 3.9696ZM433.794 2.26307L432.495 0.864862L432.202 1.13704L433.501 2.53525L433.794 2.26307ZM451.707 0.818464L453.813 2.05938L454.016 1.71472L451.91 0.473812L451.707 0.818464ZM453.813 2.05938L454.135 2.24921L454.338 1.90456L454.016 1.71472L453.813 2.05938ZM457.158 4.41935L460.327 6.87222L460.572 6.5559L457.403 4.10303L457.158 4.41935ZM460.327 6.87222L463.496 9.32509L463.741 9.00877L460.572 6.5559L460.327 6.87222ZM463.486 9.31669L467.694 13.0408L467.959 12.7412L463.751 9.01717L463.486 9.31669ZM467.675 13.0217L472.097 18.1423L472.4 17.8809L467.978 12.7603L467.675 13.0217ZM488.208 8.49802L490.558 7.74604L490.436 7.36507L488.086 8.11705L488.208 8.49802ZM468.004 47.7066L466.822 56.7661L467.219 56.8179L468.401 47.7584L468.004 47.7066ZM436.36 6.54596C436.073 6.21882 435.901 5.8074 435.87 5.37387L435.471 5.40306C435.509 5.92322 435.715 6.41686 436.059 6.80936L436.36 6.54596ZM439.17 10.1859C439.074 10.1172 439.023 10.0022 439.036 9.88481L438.638 9.84182C438.61 10.1028 438.724 10.3588 438.938 10.5114L439.17 10.1859ZM439.072 9.5439C439.125 9.05324 438.899 8.57426 438.486 8.30398L438.267 8.63866C438.554 8.82661 438.712 9.1597 438.675 9.5009L439.072 9.5439ZM443.548 15.2585C443.08 14.8012 442.703 14.2515 442.442 13.6507L442.075 13.8097C442.356 14.4578 442.763 15.0508 443.268 15.5446L443.548 15.2585ZM445.333 16.3844C444.665 16.1392 444.057 15.7555 443.548 15.2585L443.268 15.5446C443.818 16.081 444.474 16.4952 445.195 16.7599L445.333 16.3844ZM447.173 18.3462C446.908 18.047 446.678 17.719 446.487 17.3683L446.136 17.5598C446.341 17.9369 446.589 18.2896 446.873 18.6112L447.173 18.3462ZM448.965 19.7397C448.778 19.6435 448.598 19.5336 448.428 19.4109L448.194 19.7357C448.381 19.8699 448.577 19.9901 448.781 20.0953L448.965 19.7397ZM450.528 21.0447C450.109 20.5 449.575 20.0544 448.965 19.7397L448.781 20.0953C449.34 20.3831 449.828 20.7905 450.211 21.2885L450.528 21.0447ZM442.442 13.6507C442.091 12.8394 441.546 12.1174 440.86 11.5592L440.607 11.8695C441.243 12.3869 441.749 13.0568 442.075 13.8097L442.442 13.6507ZM452.374 23.1202C452.89 23.2558 453.31 23.6275 453.508 24.1221L453.879 23.9735C453.634 23.3613 453.114 22.9012 452.476 22.7334L452.374 23.1202ZM455.444 25.3019C455.18 25.2158 454.93 25.0889 454.705 24.9258L454.471 25.2498C454.729 25.4373 455.016 25.5832 455.32 25.6822L455.444 25.3019ZM459.979 29.1277C459.711 29.0144 459.487 28.8191 459.337 28.5698L458.994 28.7756C459.187 29.0975 459.477 29.3498 459.823 29.496L459.979 29.1277ZM460.793 29.8236C460.6 29.5132 460.316 29.2701 459.979 29.1277L459.823 29.496C460.084 29.6063 460.304 29.7946 460.454 30.0349L460.793 29.8236ZM461.328 36.0865C461.763 35.1408 462.419 34.3135 463.24 33.6745L462.995 33.3587C462.122 34.0372 461.426 34.9154 460.964 35.9193L461.328 36.0865ZM459.778 40.8292C459.82 40.3301 459.928 39.8388 460.1 39.3683L459.724 39.2311C459.54 39.7349 459.424 40.261 459.379 40.7956L459.778 40.8292ZM459.427 63.7103C459.424 63.7224 459.419 63.7339 459.412 63.7443L459.745 63.9662C459.777 63.9172 459.801 63.863 459.815 63.8059L459.427 63.7103ZM461.634 61.2614C461.604 60.3394 460.29 60.2023 460.07 61.0981L460.458 61.1937C460.567 60.7491 461.219 60.8172 461.235 61.2747L461.634 61.2614ZM461.725 64.4326C461.734 64.4437 461.74 64.4577 461.74 64.4724L461.34 64.4855C461.343 64.5618 461.371 64.635 461.421 64.693L461.725 64.4326ZM463.759 59.413C463.67 59.4837 463.539 59.4631 463.476 59.3684L463.143 59.5902C463.336 59.8794 463.735 59.9424 464.007 59.7266L463.759 59.413ZM465.33 60.764C465.256 60.7076 465.199 60.6321 465.165 60.5457L464.793 60.6914C464.853 60.8458 464.955 60.9806 465.086 61.0814L465.33 60.764ZM448.053 19.1417C447.731 18.9101 447.436 18.6433 447.173 18.3462L446.873 18.6112C447.156 18.9307 447.473 19.2175 447.82 19.4665L448.053 19.1417ZM483.4 24.4324C483.4 25.5356 483.318 26.6373 483.156 27.7285L483.551 27.7874C483.717 26.6767 483.8 25.5553 483.8 24.4324H483.4ZM454.488 24.7686C454.221 24.575 454.014 24.3096 453.891 24.0032L453.52 24.1518C453.671 24.5284 453.925 24.8546 454.253 25.0926L454.488 24.7686ZM484.581 12.7187C484.581 12.9072 484.552 13.0945 484.495 13.274L484.876 13.3956C484.946 13.1768 484.981 12.9484 484.981 12.7187H484.581ZM458.086 27.2524C457.787 27.1228 457.532 26.9106 457.349 26.6406L457.018 26.8645C457.243 27.1977 457.558 27.4596 457.927 27.6194L458.086 27.2524ZM499.416 7.14334C499.303 7.21874 499.175 7.26911 499.041 7.29108L499.106 7.68582C499.296 7.65464 499.478 7.58316 499.638 7.47616L499.416 7.14334ZM459.057 28.103C458.83 27.7251 458.491 27.4276 458.086 27.2524L457.927 27.6194C458.255 27.7614 458.53 28.0025 458.714 28.3088L459.057 28.103ZM499.699 6.93076C499.692 6.95081 499.679 6.96807 499.662 6.9798L499.883 7.31262C499.975 7.25155 500.044 7.16169 500.079 7.05725L499.699 6.93076ZM462.31 31.3059C461.782 31.0797 461.337 30.6969 461.033 30.2093L460.694 30.4207C461.04 30.9778 461.55 31.4151 462.153 31.6735L462.31 31.3059ZM499.623 6.80665C499.681 6.81531 499.718 6.87467 499.699 6.93076L500.079 7.05725C500.176 6.76521 499.986 6.45608 499.681 6.41097L499.623 6.80665ZM498.97 6.71997C499.005 6.71848 499.04 6.72034 499.075 6.72551L499.134 6.32983C499.074 6.32096 499.013 6.31778 498.953 6.32032L498.97 6.71997ZM477.079 8.70537C477.768 8.45602 478.495 8.32849 479.227 8.32849V7.92849C478.449 7.92849 477.676 8.06411 476.943 8.32926L477.079 8.70537ZM458.075 57.5832C458.061 57.1789 457.561 56.9982 457.292 57.2999L457.59 57.5663C457.619 57.5335 457.674 57.5532 457.675 57.5971L458.075 57.5832ZM475.298 9.70123C475.834 9.27483 476.436 8.93847 477.079 8.70537L476.943 8.32926C476.259 8.57715 475.619 8.93482 475.049 9.38826L475.298 9.70123ZM458.705 58.4311C458.537 58.709 458.11 58.5983 458.099 58.2739L457.699 58.2878C457.725 59.0099 458.674 59.2563 459.047 58.6378L458.705 58.4311ZM473.83 11.1515C474.207 10.6646 474.641 10.2247 475.122 9.84131L474.873 9.52834C474.367 9.93167 473.91 10.3945 473.514 10.9067L473.83 11.1515ZM483.095 28.1351C482.967 28.9942 482.774 29.8422 482.516 30.6717L482.898 30.7903C483.162 29.9413 483.36 29.0733 483.491 28.1941L483.095 28.1351ZM472.406 17.3499C472.293 15.6234 472.487 13.8906 472.977 12.2316L472.594 12.1181C472.09 13.8224 471.891 15.6024 472.007 17.3759L472.406 17.3499ZM463.451 59.3241C463.378 58.8376 462.681 58.8243 462.59 59.3076L462.983 59.382C462.984 59.3725 462.987 59.3673 462.989 59.3648C462.99 59.3622 462.992 59.3604 462.994 59.359C462.998 59.3556 463.007 59.3519 463.019 59.3521C463.032 59.3523 463.04 59.3564 463.045 59.3599C463.047 59.3615 463.048 59.3633 463.05 59.366C463.051 59.3685 463.054 59.3738 463.055 59.3834L463.451 59.3241ZM450.82 1.09367C450.82 0.896758 450.98 0.737125 451.177 0.737125V0.337125C450.759 0.337125 450.42 0.675844 450.42 1.09367H450.82ZM466.139 60.453C466.07 60.8264 465.631 60.9951 465.33 60.764L465.086 61.0814C465.625 61.4942 466.409 61.1928 466.532 60.5258L466.139 60.453ZM432.495 0.864862C432.453 0.818704 432.421 0.76298 432.404 0.702323L432.019 0.810175C432.053 0.932156 432.116 1.04422 432.202 1.13704L432.495 0.864862ZM433.865 0.2C433.965 0.2 434.065 0.212449 434.163 0.237063L434.261 -0.15073C434.131 -0.18345 433.998 -0.2 433.865 -0.2V0.2ZM457.383 9.93933C456.228 8.19797 454.895 6.58119 453.406 5.11496L453.126 5.39995C454.595 6.84676 455.91 8.44213 457.049 10.1604L457.383 9.93933ZM435.87 5.37387C435.832 4.85463 435.626 4.3618 435.284 3.9696L434.982 4.23267C435.268 4.55954 435.439 4.9703 435.471 5.40306L435.87 5.37387ZM482.516 30.6717C482.138 31.8899 481.624 33.0617 480.984 34.165L481.33 34.3657C481.985 33.2364 482.511 32.0371 482.898 30.7903L482.516 30.6717ZM457.292 57.2999C457.282 57.3113 457.273 57.3148 457.266 57.3161C457.258 57.3177 457.247 57.317 457.237 57.3124C457.226 57.3078 457.218 57.3008 457.213 57.2939C457.209 57.2881 457.206 57.2794 457.207 57.2642L456.808 57.2372C456.779 57.6634 457.306 57.885 457.59 57.5663L457.292 57.2999ZM491.148 7.19367C490.907 7.23328 490.669 7.29056 490.436 7.36507L490.558 7.74604C490.772 7.67751 490.991 7.62481 491.213 7.58838L491.148 7.19367ZM459.412 63.7443C459.351 63.835 459.21 63.7885 459.215 63.6797L458.816 63.661C458.792 64.1749 459.459 64.3942 459.745 63.9662L459.412 63.7443ZM452.476 22.7334C452.215 22.6648 451.975 22.5343 451.775 22.3532L451.506 22.6496C451.754 22.8738 452.052 23.0353 452.374 23.1202L452.476 22.7334ZM461.613 64.4625C461.623 64.4095 461.69 64.3917 461.725 64.4326L461.421 64.693C461.604 64.9067 461.953 64.8136 462.006 64.537L461.613 64.4625ZM451.408 0.737125C451.513 0.737125 451.616 0.76521 451.707 0.818464L451.91 0.473812C451.758 0.38432 451.584 0.337125 451.408 0.337125V0.737125ZM460.177 43.5179C459.823 42.8754 459.667 42.1423 459.728 41.4111L459.33 41.3775C459.261 42.1874 459.434 42.9995 459.827 43.7112L460.177 43.5179ZM485.772 10.7478C485.04 11.1327 484.581 11.8916 484.581 12.7187H484.981C484.981 12.0402 485.358 11.4176 485.958 11.1019L485.772 10.7478ZM463.456 59.339C463.453 59.3345 463.451 59.3294 463.451 59.3241L463.055 59.3834C463.065 59.4469 463.088 59.5075 463.124 59.5609L463.456 59.339ZM450.875 1.28265C450.839 1.22598 450.82 1.1605 450.82 1.09367H450.42C450.42 1.23547 450.46 1.37441 450.535 1.49465L450.875 1.28265ZM432.785 -0.2C432.258 -0.2 431.877 0.302828 432.019 0.810175L432.404 0.702323C432.334 0.450038 432.523 0.2 432.785 0.2V-0.2Z" fill="#544B4B" fill-opacity="0.8" mask="url(#path-2-inside-1_747_4850)"/>
</g>
<defs>
<linearGradient id="paint0_linear_747_4850" x1="4.24025" y1="82.1741" x2="507.253" y2="76.7047" gradientUnits="userSpaceOnUse">
<stop stop-color="#13CCCE"/>
<stop offset="0.523148" stop-color="#F7921C"/>
<stop offset="1" stop-color="#DC2C75"/>
</linearGradient>
<clipPath id="clip0_747_4850">
<rect width="500" height="172.546" fill="white"/>
</clipPath>
</defs>
</svg>
